<svg width="49.945" height="24.007" xmlns="http://www.w3.org/2000/svg">
 <g>
  <title>Layer 1</title>
  <g fill-opacity="0.3" id="miu">
   <g id="editor_list_view_hambuger_menu_glyph">
    <g id="svg_1">
     <path d="m1.137,0c-0.627,0 -1.137,0.428 -1.137,1.01v1.981c0,0.558 0.494,1.01 1.138,1.01h47.670998c0.628002,0 1.138,-0.428 1.138,-1.01v-1.981c0,-0.558 -0.493999,-1.01 -1.138,-1.01h-47.671998l0,0zm0,10.003c-0.627,0 -1.137,0.427999 -1.137,1.009999v1.98c0,0.557 0.494,1.01 1.138,1.01h47.670998c0.628002,0 1.138,-0.428 1.138,-1.01v-1.98c0,-0.558 -0.493999,-1.009999 -1.138,-1.009999h-47.671998l0,0zm0,10.001999c-0.627,0 -1.137,0.429001 -1.137,1.011002v1.980999c0,0.557001 0.494,1.01 1.138,1.01h47.670998c0.628002,0 1.138,-0.427999 1.138,-1.01v-1.980999c0,-0.558001 -0.493999,-1.011002 -1.138,-1.011002h-47.671998l0,0z" fill="#d22856" id="path-1"/>
    </g>
    <g id="svg_2">
     <path d="m1.137,0c-0.627,0 -1.137,0.428 -1.137,1.01v1.981c0,0.558 0.494,1.01 1.138,1.01h47.670998c0.628002,0 1.138,-0.428 1.138,-1.01v-1.981c0,-0.558 -0.493999,-1.01 -1.138,-1.01h-47.671998l0,0zm0,10.003c-0.627,0 -1.137,0.427999 -1.137,1.009999v1.98c0,0.557 0.494,1.01 1.138,1.01h47.670998c0.628002,0 1.138,-0.428 1.138,-1.01v-1.98c0,-0.558 -0.493999,-1.009999 -1.138,-1.009999h-47.671998l0,0zm0,10.001999c-0.627,0 -1.137,0.429001 -1.137,1.011002v1.980999c0,0.557001 0.494,1.01 1.138,1.01h47.670998c0.628002,0 1.138,-0.427999 1.138,-1.01v-1.980999c0,-0.558001 -0.493999,-1.011002 -1.138,-1.011002h-47.671998l0,0z" fill="#d22856" id="path-1_1_"/>
    </g>
   </g>
  </g>
 </g>
</svg>
